<svg xmlns="http://www.w3.org/2000/svg" xmlns:xlink="http://www.w3.org/1999/xlink" width="500" zoomAndPan="magnify" viewBox="0 0 375 374.999991" height="500" preserveAspectRatio="xMidYMid meet" version="1.0"><defs><clipPath id="03d8b8d040"><path d="M 31 0 L 344.328125 0 L 344.328125 375 L 31 375 Z M 31 0 " clip-rule="nonzero"/></clipPath></defs><path fill="#ffffff" d="M 126.929688 327.183594 C 105.941406 313.800781 89.570312 295.546875 77.828125 272.441406 C 66.074219 249.339844 60.070312 223.6875 59.835938 195.5 C 59.351562 162.257812 64.5625 132.796875 75.488281 107.144531 C 86.402344 81.507812 101.871094 61.347656 121.894531 46.691406 C 141.914062 32.046875 165.003906 24.144531 191.140625 23.019531 C 218.242188 21.894531 240.179688 25.417969 256.972656 33.582031 C 273.753906 41.753906 287.3125 51.613281 297.621094 63.175781 C 301.941406 68.246094 304.453125 73.109375 305.183594 77.757812 C 305.902344 82.410156 305.355469 86.789062 303.5625 90.867188 C 301.769531 94.960938 298.585938 100.109375 294.035156 106.304688 C 288.75 113.636719 283.179688 118.078125 277.304688 119.625 C 271.425781 121.171875 265.484375 119.277344 259.496094 113.921875 C 251.09375 106.03125 242.234375 99.972656 232.878906 95.742188 C 223.523438 91.511719 212.609375 89.546875 200.136719 89.816406 C 188.144531 90.101562 176.15625 93.476562 164.164062 99.960938 C 152.171875 106.453125 142.164062 116.941406 134.121094 131.449219 C 126.074219 145.96875 122.066406 164.359375 122.066406 186.609375 C 122.066406 224.097656 131.296875 250.589844 149.773438 266.085938 C 168.234375 281.582031 188.679688 287.925781 211.113281 285.105469 C 233.535156 282.300781 247.742188 274.964844 253.742188 263.128906 C 255.894531 257.773438 256.984375 250.242188 256.984375 240.507812 C 256.984375 230.773438 256.378906 222.265625 255.191406 214.929688 C 249.4375 216.339844 241.21875 217.195312 230.554688 217.464844 C 219.875 217.75 210.953125 217.046875 203.75 215.351562 C 199.195312 214.226562 196.140625 211.617188 194.582031 207.535156 C 193.019531 203.453125 192.242188 198.308594 192.242188 192.101562 C 192.242188 185.890625 193.082031 180.96875 194.765625 177.308594 C 196.4375 173.648438 199.800781 170.828125 204.839844 168.847656 C 212.757812 166.597656 222.941406 165.1875 235.417969 164.617188 C 247.890625 164.0625 257.714844 164.199219 264.917969 165.039062 C 273.789062 166.164062 281.945312 168.207031 289.378906 171.171875 C 296.804688 174.128906 301.855469 179.136719 304.488281 186.175781 C 306.890625 192.941406 308.5625 201.328125 309.527344 211.332031 C 310.480469 221.339844 310.839844 232.257812 310.601562 244.09375 C 310.121094 263.539062 305.320312 281.085938 296.210938 296.71875 C 287.089844 312.367188 274.148438 324.695312 257.355469 333.710938 C 240.5625 342.730469 221.261719 347.242188 199.429688 347.242188 C 172.097656 347.242188 147.929688 340.539062 126.941406 327.15625 Z M 126.929688 327.183594 " fill-opacity="1" fill-rule="nonzero"/><g clip-path="url(#03d8b8d040)"><path fill="#ffffff" d="M 201.894531 380.648438 C 168.695312 380.648438 138.710938 372.261719 112.761719 355.714844 C 87.144531 339.390625 66.953125 316.90625 52.71875 288.917969 C 38.847656 261.644531 31.671875 231.171875 31.386719 198.320312 C 30.855469 160.921875 36.957031 127.007812 49.503906 97.511719 C 62.570312 66.800781 81.613281 42.140625 106.105469 24.21875 C 131.050781 5.964844 160.054688 -4.003906 192.292969 -5.390625 C 196.027344 -5.539062 199.691406 -5.625 203.230469 -5.625 C 230.589844 -5.625 254.0625 -0.949219 273.007812 8.261719 C 293.367188 18.183594 310.242188 30.5625 323.199219 45.070312 L 323.449219 45.34375 L 323.683594 45.625 C 331.738281 55.101562 336.636719 65.15625 338.246094 75.507812 C 339.855469 85.921875 338.519531 96.398438 334.375 105.808594 C 331.664062 111.980469 327.457031 118.90625 321.542969 126.96875 C 316.058594 134.550781 309.960938 140.5625 303.3125 144.941406 C 318.917969 151.164062 330.191406 162.527344 335.921875 177.816406 L 336.117188 178.359375 C 339.386719 187.597656 341.574219 198.234375 342.789062 210.875 C 343.851562 222.019531 344.261719 234.238281 344 247.210938 L 344 247.359375 C 343.382812 271.984375 337.132812 294.667969 325.414062 314.777344 C 313.410156 335.359375 296.285156 351.734375 274.46875 363.445312 C 253.199219 374.875 228.785156 380.660156 201.90625 380.660156 Z M 204.902344 123.1875 C 204.367188 123.1875 203.835938 123.1875 203.304688 123.199219 C 196.25 123.359375 189.0625 125.472656 181.363281 129.628906 C 174.621094 133.277344 168.84375 139.574219 163.683594 148.898438 C 158.25 158.707031 155.488281 172.238281 155.488281 189.09375 C 155.488281 208.179688 158.375 233.335938 172.144531 244.886719 C 182.253906 253.371094 192.179688 257.328125 203.378906 257.328125 C 205.433594 257.328125 207.574219 257.191406 209.726562 256.921875 C 221.023438 255.5 226.097656 253.0625 227.980469 251.875 C 228.027344 251.589844 228.066406 251.28125 228.101562 250.945312 C 217.078125 250.921875 207.597656 249.945312 199.121094 247.953125 L 198.800781 247.878906 C 184.445312 244.34375 173.273438 234.558594 168.113281 221.042969 C 165.179688 213.386719 163.742188 204.726562 163.742188 194.609375 C 163.742188 183.8125 165.488281 174.761719 169.078125 166.929688 C 172.589844 159.261719 180.113281 148.800781 195.980469 142.578125 L 197.363281 142.035156 L 198.800781 141.625 C 209.109375 138.695312 221.421875 136.9375 236.441406 136.246094 C 236.863281 136.222656 237.285156 136.210938 237.707031 136.195312 C 232.78125 132.003906 227.707031 128.714844 222.597656 126.402344 C 217.90625 124.273438 211.941406 123.210938 204.886719 123.210938 Z M 204.902344 123.1875 " fill-opacity="1" fill-rule="nonzero"/></g><path fill="#001d6c" d="M 201.894531 371.992188 C 170.375 371.992188 141.953125 364.0625 117.425781 348.417969 C 93.136719 332.933594 73.96875 311.585938 60.441406 284.996094 C 47.175781 258.925781 40.308594 229.734375 40.035156 198.234375 C 39.515625 162.035156 45.382812 129.296875 57.460938 100.910156 C 69.910156 71.648438 87.988281 48.199219 111.203125 31.21875 C 134.75 13.988281 162.160156 4.578125 192.648438 3.265625 C 196.25 3.117188 199.789062 3.042969 203.21875 3.042969 C 229.253906 3.042969 251.453125 7.421875 269.199219 16.066406 C 288.539062 25.492188 304.515625 37.191406 316.714844 50.847656 L 317.0625 51.242188 C 324.066406 59.480469 328.3125 68.085938 329.660156 76.84375 C 331.03125 85.75 329.945312 94.320312 326.417969 102.320312 C 323.953125 107.925781 320.058594 114.316406 314.511719 121.875 C 306.171875 133.425781 296.398438 140.75 285.445312 143.617188 C 282.300781 144.445312 279.046875 144.878906 275.804688 144.878906 C 265.609375 144.878906 255.957031 140.871094 247.121094 132.980469 L 246.714844 132.609375 C 240.128906 126.425781 233.226562 121.675781 226.171875 118.5 C 220.34375 115.863281 213.191406 114.527344 204.902344 114.527344 C 204.308594 114.527344 203.714844 114.527344 203.105469 114.554688 C 194.640625 114.75 186.167969 117.199219 177.230469 122.023438 C 168.992188 126.476562 162.074219 133.910156 156.082031 144.707031 C 149.933594 155.8125 146.816406 170.753906 146.816406 189.09375 C 146.816406 219.519531 153.460938 240.519531 166.566406 251.515625 C 178.160156 261.25 190.199219 265.972656 203.367188 265.972656 C 205.78125 265.972656 208.277344 265.8125 210.804688 265.492188 C 225.8125 263.613281 233.472656 259.628906 235.886719 256.277344 C 236.394531 254.484375 237.171875 250.527344 237.171875 242.980469 C 237.171875 242.683594 237.171875 242.375 237.171875 242.078125 C 236.011719 242.128906 234.808594 242.164062 233.585938 242.191406 C 231.863281 242.238281 230.167969 242.265625 228.523438 242.265625 C 217.992188 242.265625 209.023438 241.363281 201.101562 239.492188 L 200.878906 239.445312 C 189.160156 236.5625 180.398438 228.917969 176.21875 217.925781 C 173.667969 211.257812 172.417969 203.613281 172.417969 194.574219 C 172.417969 185.039062 173.902344 177.171875 176.960938 170.503906 C 179.804688 164.285156 185.980469 155.761719 199.148438 150.605469 L 200.148438 150.210938 L 201.1875 149.914062 C 210.839844 147.167969 222.507812 145.511719 236.851562 144.855469 C 242.160156 144.621094 247.109375 144.496094 251.566406 144.496094 C 258.71875 144.496094 264.742188 144.792969 269.964844 145.410156 L 270.175781 145.4375 C 280.867188 146.796875 290.925781 149.332031 300.058594 152.96875 C 313.335938 158.261719 322.929688 167.894531 327.789062 180.84375 L 327.9375 181.230469 C 330.972656 189.800781 333 199.757812 334.152344 211.679688 C 335.179688 222.488281 335.574219 234.375 335.328125 247.015625 C 334.746094 270.265625 328.890625 291.5625 317.917969 310.398438 C 306.730469 329.582031 290.742188 344.84375 270.363281 355.800781 C 250.363281 366.539062 227.335938 371.980469 201.894531 371.980469 Z M 201.894531 371.992188 " fill-opacity="1" fill-rule="nonzero"/><path fill="#7ba8ff" d="M 194.246094 347.253906 C 166.539062 347.253906 141.679688 340.367188 120.371094 326.773438 C 99.085938 313.207031 82.257812 294.445312 70.355469 271.019531 C 58.476562 247.65625 52.324219 221.386719 52.089844 192.929688 C 51.605469 159.484375 56.941406 129.40625 67.941406 103.546875 C 78.992188 77.585938 94.890625 56.894531 115.199219 42.027344 C 135.554688 27.136719 159.324219 19 185.867188 17.859375 C 189.171875 17.726562 192.441406 17.652344 195.582031 17.652344 C 218.597656 17.652344 237.902344 21.359375 252.949219 28.683594 C 269.964844 36.96875 283.910156 47.136719 294.40625 58.871094 C 299.058594 64.339844 301.792969 69.671875 302.585938 74.777344 C 303.375 79.910156 302.769531 84.796875 300.777344 89.324219 C 298.921875 93.550781 295.617188 98.90625 290.964844 105.242188 C 285.371094 113.019531 279.257812 117.832031 272.8125 119.523438 C 271.289062 119.933594 269.730469 120.132812 268.183594 120.132812 C 262.972656 120.132812 257.738281 117.820312 252.628906 113.242188 C 244.414062 105.539062 235.699219 99.574219 226.667969 95.496094 C 218.277344 91.699219 208.390625 89.78125 197.277344 89.78125 C 196.535156 89.78125 195.792969 89.78125 195.050781 89.804688 C 183.53125 90.078125 171.824219 93.390625 160.253906 99.636719 C 148.757812 105.859375 138.996094 116.113281 131.25 130.113281 C 123.464844 144.175781 119.515625 162.304688 119.515625 184.023438 C 119.515625 220.535156 128.527344 246.617188 146.296875 261.519531 C 161.367188 274.171875 178.011719 280.59375 195.757812 280.59375 C 198.984375 280.59375 202.316406 280.382812 205.644531 279.960938 C 226.988281 277.277344 240.652344 270.390625 246.242188 259.480469 C 248.234375 254.472656 249.25 247.222656 249.25 237.9375 C 249.25 229.574219 248.792969 222.03125 247.890625 215.476562 C 242.210938 216.5625 234.6875 217.242188 225.46875 217.480469 C 223.921875 217.515625 222.398438 217.539062 220.914062 217.539062 C 212.039062 217.539062 204.332031 216.785156 198.007812 215.300781 C 192.574219 213.964844 188.886719 210.800781 187.007812 205.890625 C 185.347656 201.550781 184.496094 196.046875 184.496094 189.539062 C 184.496094 183.035156 185.421875 177.65625 187.242188 173.671875 C 189.199219 169.40625 193.058594 166.101562 198.726562 163.890625 L 198.835938 163.839844 L 198.960938 163.800781 C 207.015625 161.515625 217.511719 160.054688 230.132812 159.472656 C 235.144531 159.25 239.796875 159.128906 243.953125 159.128906 C 250.242188 159.128906 255.660156 159.386719 260.054688 159.90625 C 269.136719 161.058594 277.574219 163.183594 285.171875 166.203125 C 293.277344 169.429688 298.847656 174.984375 301.742188 182.699219 C 304.21875 189.675781 305.960938 198.347656 306.925781 208.511719 C 307.894531 218.566406 308.25 229.6875 308.015625 241.570312 C 307.523438 261.386719 302.558594 279.503906 293.277344 295.445312 C 283.960938 311.4375 270.546875 324.214844 253.421875 333.414062 C 236.320312 342.59375 216.421875 347.253906 194.285156 347.253906 Z M 194.246094 347.253906 " fill-opacity="1" fill-rule="nonzero"/><path fill="#1d63e9" d="M 126.929688 327.183594 C 105.941406 313.800781 89.570312 295.546875 77.828125 272.441406 C 66.074219 249.339844 60.070312 223.6875 59.835938 195.5 C 59.351562 162.257812 64.5625 132.796875 75.488281 107.144531 C 86.402344 81.507812 101.871094 61.347656 121.894531 46.691406 C 141.914062 32.046875 165.003906 24.144531 191.140625 23.019531 C 218.242188 21.894531 240.179688 25.417969 256.972656 33.582031 C 273.753906 41.753906 287.3125 51.613281 297.621094 63.175781 C 301.941406 68.246094 304.453125 73.109375 305.183594 77.757812 C 305.902344 82.410156 305.355469 86.789062 303.5625 90.867188 C 301.769531 94.960938 298.585938 100.109375 294.035156 106.304688 C 288.75 113.636719 283.179688 118.078125 277.304688 119.625 C 271.425781 121.171875 265.484375 119.277344 259.496094 113.921875 C 251.09375 106.03125 242.234375 99.972656 232.878906 95.742188 C 223.523438 91.511719 212.609375 89.546875 200.136719 89.816406 C 188.144531 90.101562 176.15625 93.476562 164.164062 99.960938 C 152.171875 106.453125 142.164062 116.941406 134.121094 131.449219 C 126.074219 145.96875 122.066406 164.359375 122.066406 186.609375 C 122.066406 224.097656 131.296875 250.589844 149.773438 266.085938 C 168.234375 281.582031 188.679688 287.925781 211.113281 285.105469 C 233.535156 282.300781 247.742188 274.964844 253.742188 263.128906 C 255.894531 257.773438 256.984375 250.242188 256.984375 240.507812 C 256.984375 230.773438 256.378906 222.265625 255.191406 214.929688 C 249.4375 216.339844 241.21875 217.195312 230.554688 217.464844 C 219.875 217.75 210.953125 217.046875 203.75 215.351562 C 199.195312 214.226562 196.140625 211.617188 194.582031 207.535156 C 193.019531 203.453125 192.242188 198.308594 192.242188 192.101562 C 192.242188 185.890625 193.082031 180.96875 194.765625 177.308594 C 196.4375 173.648438 199.800781 170.828125 204.839844 168.847656 C 212.757812 166.597656 222.941406 165.1875 235.417969 164.617188 C 247.890625 164.0625 257.714844 164.199219 264.917969 165.039062 C 273.789062 166.164062 281.945312 168.207031 289.378906 171.171875 C 296.804688 174.128906 301.855469 179.136719 304.488281 186.175781 C 306.890625 192.941406 308.5625 201.328125 309.527344 211.332031 C 310.480469 221.339844 310.839844 232.257812 310.601562 244.09375 C 310.121094 263.539062 305.320312 281.085938 296.210938 296.71875 C 287.089844 312.367188 274.148438 324.695312 257.355469 333.710938 C 240.5625 342.730469 221.261719 347.242188 199.429688 347.242188 C 172.097656 347.242188 147.929688 340.539062 126.941406 327.15625 Z M 126.929688 327.183594 " fill-opacity="1" fill-rule="nonzero"/></svg>